<svg xmlns="http://www.w3.org/2000/svg" width="100" height="25" viewBox="0 0 100 25">
    <defs>
        <style>
            .cls-1{fill:#fff}.cls-2{fill:#e22d43}
        </style>
    </defs>
    <g id="logo" transform="translate(-415.325 -696.464)">
        <path id="패스_1025" d="M642.586 620.536a9.463 9.463 0 0 0-3.5-1.164 8.169 8.169 0 0 0-5.2 1.045 9.645 9.645 0 0 0-2.508 2.1v-2.664h-2.287v19.333h2.287v-10.54a6.848 6.848 0 0 1 2.433-5.3 6.368 6.368 0 0 1 4.233-1.759 3.738 3.738 0 0 1 .657.061 6.877 6.877 0 0 1 2.522.824 4.968 4.968 0 0 1 1.538 1.794 8.94 8.94 0 0 1 .922 4.509v10.41h2.352v-10.41a11.622 11.622 0 0 0-1.212-5.789 7.145 7.145 0 0 0-2.237-2.45z" class="cls-1" data-name="패스 1025" transform="translate(-213.764 81.822)"/>
        <path id="사각형_1706" d="M0 0h2.286v2.289H0z" class="cls-2" data-name="사각형 1706" transform="translate(437.038 696.464)"/>
        <path id="사각형_1707" d="M0 0h2.286v19.399H0z" class="cls-1" data-name="사각형 1707" transform="translate(437.038 701.639)"/>
        <path id="패스_1026" d="M660.045 619.368a6.589 6.589 0 0 0-1.15-.1 7.7 7.7 0 0 0-5.193 2.049 8.353 8.353 0 0 0-1.538 1.739 6.736 6.736 0 0 0-5.513-3.689 6.6 6.6 0 0 0-1.154-.1 7.6 7.6 0 0 0-5.411 2.243v-1.6H637.8v19.4h2.287v-13.8a5.207 5.207 0 0 1 1.47-2.165 6.18 6.18 0 0 1 4.067-1.759c2.117 0 3.505.779 4.251 2.386a12.179 12.179 0 0 1 .905 4.8v10.538h2.352v-10.471c0-.783-.013-1.4-.037-1.786a6.046 6.046 0 0 1 1.858-3.71 6.209 6.209 0 0 1 4.073-1.756c2.117 0 3.505.779 4.247 2.386a12.263 12.263 0 0 1 .905 4.8v10.537h2.352v-10.471a13.9 13.9 0 0 0-1.167-6.258c-.932-1.774-2.722-2.853-5.318-3.213z" class="cls-1" data-name="패스 1026" transform="translate(-193.042 81.732)"/>
        <path id="패스_1027" d="M656.151 619.354a8.226 8.226 0 0 0-6.238 2.985 10.277 10.277 0 0 0-2.685 7.1 10.63 10.63 0 0 0 2.443 7.357 9.194 9.194 0 0 0 13.044.031 10.821 10.821 0 0 0 2.362-7.388 10.305 10.305 0 0 0-2.668-7.1 8.22 8.22 0 0 0-6.258-2.985zm6.64 10.087a8.384 8.384 0 0 1-1.851 5.7 5.982 5.982 0 0 1-4.754 2.1 6.069 6.069 0 0 1-4.785-2.066 8.454 8.454 0 0 1-1.821-5.734 8.13 8.13 0 0 1 2.018-5.51 5.738 5.738 0 0 1 9.178 0 8.149 8.149 0 0 1 2.015 5.51z" class="cls-1" data-name="패스 1027" transform="translate(-170.547 81.936)"/>
        <path id="패스_1028" d="M669.381 622.988a7.149 7.149 0 0 0-2.239-2.453 9.441 9.441 0 0 0-3.5-1.164 8.179 8.179 0 0 0-5.193 1.045 9.544 9.544 0 0 0-2.515 2.1v-2.664h-2.29v19.333h2.29v-10.54a6.83 6.83 0 0 1 2.437-5.3 6.349 6.349 0 0 1 4.233-1.759 3.752 3.752 0 0 1 .654.061 6.878 6.878 0 0 1 2.522.824 4.929 4.929 0 0 1 1.538 1.794 8.935 8.935 0 0 1 .919 4.509v10.41h2.355v-10.41a11.673 11.673 0 0 0-1.211-5.786z" class="cls-1" data-name="패스 1028" transform="translate(-155.263 81.824)"/>
    </g>
</svg>
