<svg xmlns="http://www.w3.org/2000/svg" width="22" height="22" viewBox="0 0 22 22">
    <defs>
        <style>
            .cls-1{fill:#fff}.cls-2{fill:#e22d43}.cls-3{clip-path:url(#clip-path)}.cls-4{fill:none}
        </style>
        <clipPath id="clip-path">
            <path id="패스_1024" d="M650.463 608.437h-3.731v-8.022c0-3.062-3.02-5.553-6.732-5.553s-6.733 2.492-6.733 5.553v8.022h-3.731v-8.022c0-5.023 4.694-9.109 10.464-9.109s10.464 4.086 10.464 9.109z" class="cls-1" data-name="패스 1024" transform="translate(-629.535 -591.306)"/>
        </clipPath>
    </defs>
    <g id="logo" transform="translate(-125 -145)">
        <g id="그룹_424" data-name="그룹 424" transform="translate(125.294 145.031)">
            <g id="그룹_368" data-name="그룹 368">
                <circle id="타원_298" cx="2.203" cy="2.203" r="2.203" class="cls-2" data-name="타원 298"/>
            </g>
            <g id="그룹_421" data-name="그룹 421" transform="translate(.004 4.406)">
                <g id="그룹_420" class="cls-3" data-name="그룹 420">
                    <g id="그룹_369" data-name="그룹 369" transform="translate(-11.962 -11.206)">
                        <path id="패스_973" d="M613.684 598.361l-.133-.126 23.7-22.642.133.126z" class="cls-1" data-name="패스 973" transform="translate(-613.551 -575.592)"/>
                    </g>
                    <g id="그룹_370" data-name="그룹 370" transform="translate(-11.526 -10.79)">
                        <path id="패스_974" d="M614.267 598.944l-.133-.126 23.7-22.642.133.126z" class="cls-1" data-name="패스 974" transform="translate(-614.134 -576.176)"/>
                    </g>
                    <g id="그룹_371" data-name="그룹 371" transform="translate(-11.089 -10.374)">
                        <path id="패스_975" d="M614.851 599.528l-.133-.126 23.7-22.642.133.126z" class="cls-1" data-name="패스 975" transform="translate(-614.718 -576.759)"/>
                    </g>
                    <g id="그룹_372" data-name="그룹 372" transform="translate(-10.653 -9.958)">
                        <path id="패스_976" d="M615.434 600.111l-.133-.126L639 577.342l.133.126z" class="cls-1" data-name="패스 976" transform="translate(-615.301 -577.342)"/>
                    </g>
                    <g id="그룹_373" data-name="그룹 373" transform="translate(-10.216 -9.542)">
                        <path id="패스_977" d="M616.017 600.694l-.133-.126 23.7-22.642.133.126z" class="cls-1" data-name="패스 977" transform="translate(-615.884 -577.926)"/>
                    </g>
                    <g id="그룹_374" data-name="그룹 374" transform="translate(-9.779 -9.126)">
                        <path id="패스_978" d="M616.6 601.278l-.133-.126 23.7-22.642.133.126z" class="cls-1" data-name="패스 978" transform="translate(-616.467 -578.509)"/>
                    </g>
                    <g id="그룹_375" data-name="그룹 375" transform="translate(-9.343 -8.71)">
                        <path id="패스_979" d="M617.183 601.861l-.133-.126 23.7-22.642.133.126z" class="cls-1" data-name="패스 979" transform="translate(-617.05 -579.092)"/>
                    </g>
                    <g id="그룹_376" data-name="그룹 376" transform="translate(-8.907 -8.294)">
                        <path id="패스_980" d="M617.767 602.444l-.133-.126 23.7-22.642.133.126z" class="cls-1" data-name="패스 980" transform="translate(-617.634 -579.676)"/>
                    </g>
                    <g id="그룹_377" data-name="그룹 377" transform="translate(-8.47 -7.878)">
                        <path id="패스_981" d="M618.351 603.028l-.133-.126 23.7-22.642.133.126z" class="cls-1" data-name="패스 981" transform="translate(-618.218 -580.259)"/>
                    </g>
                    <g id="그룹_378" data-name="그룹 378" transform="translate(-8.033 -7.462)">
                        <path id="패스_982" d="M618.933 603.611l-.133-.126 23.7-22.642.133.126z" class="cls-1" data-name="패스 982" transform="translate(-618.8 -580.842)"/>
                    </g>
                    <g id="그룹_379" data-name="그룹 379" transform="translate(-7.597 -7.046)">
                        <path id="패스_983" d="M619.516 604.194l-.133-.126 23.7-22.642.133.126z" class="cls-1" data-name="패스 983" transform="translate(-619.383 -581.426)"/>
                    </g>
                    <g id="그룹_380" data-name="그룹 380" transform="translate(-7.16 -6.63)">
                        <path id="패스_984" d="M620.1 604.778l-.133-.126 23.7-22.642.133.126z" class="cls-1" data-name="패스 984" transform="translate(-619.968 -582.009)"/>
                    </g>
                    <g id="그룹_381" data-name="그룹 381" transform="translate(-6.724 -6.214)">
                        <path id="패스_985" d="M620.684 605.361l-.133-.126 23.7-22.642.133.126z" class="cls-1" data-name="패스 985" transform="translate(-620.551 -582.592)"/>
                    </g>
                    <g id="그룹_382" data-name="그룹 382" transform="translate(-6.287 -5.798)">
                        <path id="패스_986" d="M621.267 605.944l-.133-.126 23.7-22.642.133.126z" class="cls-1" data-name="패스 986" transform="translate(-621.134 -583.176)"/>
                    </g>
                    <g id="그룹_383" data-name="그룹 383" transform="translate(-5.85 -5.382)">
                        <path id="패스_987" d="M621.851 606.528l-.133-.126 23.7-22.642.133.126z" class="cls-1" data-name="패스 987" transform="translate(-621.718 -583.759)"/>
                    </g>
                    <g id="그룹_384" data-name="그룹 384" transform="translate(-5.414 -4.966)">
                        <path id="패스_988" d="M622.434 607.111l-.133-.126L646 584.342l.133.126z" class="cls-1" data-name="패스 988" transform="translate(-622.301 -584.342)"/>
                    </g>
                    <g id="그룹_385" data-name="그룹 385" transform="translate(-4.978 -4.55)">
                        <path id="패스_989" d="M623.017 607.694l-.133-.126 23.7-22.642.133.126z" class="cls-1" data-name="패스 989" transform="translate(-622.884 -584.926)"/>
                    </g>
                    <g id="그룹_386" data-name="그룹 386" transform="translate(-4.541 -4.134)">
                        <path id="패스_990" d="M623.6 608.278l-.133-.126 23.7-22.642.133.126z" class="cls-1" data-name="패스 990" transform="translate(-623.467 -585.509)"/>
                    </g>
                    <g id="그룹_387" data-name="그룹 387" transform="translate(-4.104 -3.718)">
                        <path id="패스_991" d="M624.183 608.861l-.133-.126 23.7-22.643.133.126z" class="cls-1" data-name="패스 991" transform="translate(-624.05 -586.092)"/>
                    </g>
                    <g id="그룹_388" data-name="그룹 388" transform="translate(-3.668 -3.302)">
                        <path id="패스_992" d="M624.766 609.444l-.133-.126 23.7-22.642.133.126z" class="cls-1" data-name="패스 992" transform="translate(-624.633 -586.676)"/>
                    </g>
                    <g id="그룹_389" data-name="그룹 389" transform="translate(-3.231 -2.886)">
                        <path id="패스_993" d="M625.351 610.028l-.133-.126 23.7-22.642.133.126z" class="cls-1" data-name="패스 993" transform="translate(-625.218 -587.259)"/>
                    </g>
                    <g id="그룹_390" data-name="그룹 390" transform="translate(-2.795 -2.47)">
                        <path id="패스_994" d="M625.934 610.61l-.133-.126 23.7-22.642.133.126z" class="cls-1" data-name="패스 994" transform="translate(-625.801 -587.842)"/>
                    </g>
                    <g id="그룹_391" data-name="그룹 391" transform="translate(-2.359 -2.054)">
                        <path id="패스_995" d="M626.516 611.194l-.133-.126 23.7-22.642.133.126z" class="cls-1" data-name="패스 995" transform="translate(-626.383 -588.426)"/>
                    </g>
                    <g id="그룹_392" data-name="그룹 392" transform="translate(-1.921 -1.638)">
                        <path id="패스_996" d="M627.1 611.778l-.133-.126 23.7-22.642.133.126z" class="cls-1" data-name="패스 996" transform="translate(-626.968 -589.009)"/>
                    </g>
                    <g id="그룹_393" data-name="그룹 393" transform="translate(-1.485 -1.222)">
                        <path id="패스_997" d="M627.684 612.361l-.133-.126 23.7-22.642.133.126z" class="cls-1" data-name="패스 997" transform="translate(-627.551 -589.592)"/>
                    </g>
                    <g id="그룹_394" data-name="그룹 394" transform="translate(-1.049 -.806)">
                        <path id="패스_998" d="M628.267 612.944l-.133-.126 23.7-22.642.133.126z" class="cls-1" data-name="패스 998" transform="translate(-628.134 -590.176)"/>
                    </g>
                    <g id="그룹_395" data-name="그룹 395" transform="translate(-.612 -.39)">
                        <path id="패스_999" d="M628.85 613.528l-.133-.126 23.7-22.643.133.126z" class="cls-1" data-name="패스 999" transform="translate(-628.717 -590.759)"/>
                    </g>
                    <g id="그룹_396" data-name="그룹 396" transform="translate(-.176 .026)">
                        <path id="패스_1000" d="M629.434 614.111l-.133-.126L653 591.342l.133.126z" class="cls-1" data-name="패스 1000" transform="translate(-629.301 -591.342)"/>
                    </g>
                    <g id="그룹_397" data-name="그룹 397" transform="translate(.261 .442)">
                        <path id="패스_1001" d="M630.017 614.694l-.133-.126 23.7-22.642.133.126z" class="cls-1" data-name="패스 1001" transform="translate(-629.884 -591.926)"/>
                    </g>
                    <g id="그룹_398" data-name="그룹 398" transform="translate(.698 .858)">
                        <path id="패스_1002" d="M630.6 615.278l-.133-.126 23.7-22.642.133.126z" class="cls-1" data-name="패스 1002" transform="translate(-630.467 -592.509)"/>
                    </g>
                    <g id="그룹_399" data-name="그룹 399" transform="translate(1.134 1.274)">
                        <path id="패스_1003" d="M631.183 615.861l-.133-.126 23.7-22.642.133.126z" class="cls-1" data-name="패스 1003" transform="translate(-631.05 -593.092)"/>
                    </g>
                    <g id="그룹_400" data-name="그룹 400" transform="translate(1.57 1.69)">
                        <path id="패스_1004" d="M631.766 616.444l-.133-.126 23.7-22.642.133.126z" class="cls-1" data-name="패스 1004" transform="translate(-631.633 -593.676)"/>
                    </g>
                    <g id="그룹_401" data-name="그룹 401" transform="translate(2.007 2.106)">
                        <path id="패스_1005" d="M632.351 617.027l-.133-.126 23.7-22.642.133.126z" class="cls-1" data-name="패스 1005" transform="translate(-632.218 -594.259)"/>
                    </g>
                    <g id="그룹_402" data-name="그룹 402" transform="translate(2.444 2.522)">
                        <path id="패스_1006" d="M632.934 617.611l-.133-.126 23.7-22.642.133.126z" class="cls-1" data-name="패스 1006" transform="translate(-632.801 -594.842)"/>
                    </g>
                    <g id="그룹_403" data-name="그룹 403" transform="translate(2.88 2.938)">
                        <path id="패스_1007" d="M633.517 618.194l-.133-.126 23.7-22.642.133.126z" class="cls-1" data-name="패스 1007" transform="translate(-633.384 -595.426)"/>
                    </g>
                    <g id="그룹_404" data-name="그룹 404" transform="translate(3.317 3.354)">
                        <path id="패스_1008" d="M634.1 618.778l-.133-.126 23.7-22.642.133.126z" class="cls-1" data-name="패스 1008" transform="translate(-633.968 -596.009)"/>
                    </g>
                    <g id="그룹_405" data-name="그룹 405" transform="translate(3.753 3.77)">
                        <path id="패스_1009" d="M634.684 619.361l-.133-.126 23.7-22.642.133.126z" class="cls-1" data-name="패스 1009" transform="translate(-634.551 -596.592)"/>
                    </g>
                    <g id="그룹_406" data-name="그룹 406" transform="translate(4.19 4.186)">
                        <path id="패스_1010" d="M635.267 619.944l-.133-.126 23.7-22.643.133.126z" class="cls-1" data-name="패스 1010" transform="translate(-635.134 -597.176)"/>
                    </g>
                    <g id="그룹_407" data-name="그룹 407" transform="translate(4.627 4.602)">
                        <path id="패스_1011" d="M635.85 620.528l-.133-.126 23.7-22.642.133.126z" class="cls-1" data-name="패스 1011" transform="translate(-635.717 -597.759)"/>
                    </g>
                    <g id="그룹_408" data-name="그룹 408" transform="translate(5.063 5.018)">
                        <path id="패스_1012" d="M636.433 621.111l-.133-.126 23.7-22.643.133.126z" class="cls-1" data-name="패스 1012" transform="translate(-636.3 -598.342)"/>
                    </g>
                    <g id="그룹_409" data-name="그룹 409" transform="translate(5.499 5.434)">
                        <path id="패스_1013" d="M637.017 621.694l-.133-.126 23.7-22.642.133.126z" class="cls-1" data-name="패스 1013" transform="translate(-636.884 -598.926)"/>
                    </g>
                    <g id="그룹_410" data-name="그룹 410" transform="translate(5.936 5.85)">
                        <path id="패스_1014" d="M637.6 622.278l-.133-.126 23.7-22.643.133.126z" class="cls-1" data-name="패스 1014" transform="translate(-637.468 -599.509)"/>
                    </g>
                    <g id="그룹_411" data-name="그룹 411" transform="translate(6.373 6.266)">
                        <path id="패스_1015" d="M638.183 622.861l-.133-.126 23.7-22.642.133.126z" class="cls-1" data-name="패스 1015" transform="translate(-638.05 -600.092)"/>
                    </g>
                    <g id="그룹_412" data-name="그룹 412" transform="translate(6.809 6.682)">
                        <path id="패스_1016" d="M638.766 623.444l-.133-.126 23.7-22.642.133.126z" class="cls-1" data-name="패스 1016" transform="translate(-638.633 -600.676)"/>
                    </g>
                    <g id="그룹_413" data-name="그룹 413" transform="translate(7.246 7.098)">
                        <path id="패스_1017" d="M639.351 624.028l-.133-.126 23.7-22.642.133.126z" class="cls-1" data-name="패스 1017" transform="translate(-639.218 -601.259)"/>
                    </g>
                    <g id="그룹_414" data-name="그룹 414" transform="translate(7.682 7.514)">
                        <path id="패스_1018" d="M639.934 624.611l-.133-.126 23.7-22.642.133.126z" class="cls-1" data-name="패스 1018" transform="translate(-639.801 -601.842)"/>
                    </g>
                    <g id="그룹_415" data-name="그룹 415" transform="translate(8.119 7.93)">
                        <path id="패스_1019" d="M640.517 625.194l-.133-.126 23.7-22.642.133.126z" class="cls-1" data-name="패스 1019" transform="translate(-640.384 -602.426)"/>
                    </g>
                    <g id="그룹_416" data-name="그룹 416" transform="translate(8.556 8.346)">
                        <path id="패스_1020" d="M641.1 625.778l-.133-.126 23.7-22.642.133.126z" class="cls-1" data-name="패스 1020" transform="translate(-640.968 -603.009)"/>
                    </g>
                    <g id="그룹_417" data-name="그룹 417" transform="translate(8.992 8.762)">
                        <path id="패스_1021" d="M641.684 626.361l-.133-.126 23.7-22.642.133.126z" class="cls-1" data-name="패스 1021" transform="translate(-641.551 -603.592)"/>
                    </g>
                    <g id="그룹_418" data-name="그룹 418" transform="translate(9.428 9.178)">
                        <path id="패스_1022" d="M642.267 626.944l-.133-.126 23.7-22.642.133.126z" class="cls-1" data-name="패스 1022" transform="translate(-642.134 -604.176)"/>
                    </g>
                    <g id="그룹_419" data-name="그룹 419" transform="translate(9.865 9.594)">
                        <path id="패스_1023" d="M642.85 627.528l-.133-.126 23.7-22.642.133.126z" class="cls-1" data-name="패스 1023" transform="translate(-642.717 -604.759)"/>
                    </g>
                </g>
            </g>
        </g>
        <path id="사각형_1735" d="M0 0h22v22H0z" class="cls-4" data-name="사각형 1735" transform="translate(125 145)"/>
        <path id="사각형_1805" d="M0 0h22v22H0z" class="cls-4" data-name="사각형 1805" transform="translate(125 145)"/>
    </g>
</svg>
