<svg xmlns="http://www.w3.org/2000/svg" width="69.997" height="90" viewBox="0 0 69.997 90">
    <defs>
        <style>
            .cls-1{fill:#666}.cls-2{clip-path:url(#clip-path)}
        </style>
        <clipPath id="clip-path">
            <path id="패스_1024" d="M695.818 648.243H684v-26.662c0-10.175-9.564-18.457-21.322-18.457s-21.325 8.282-21.325 18.457v26.663h-11.818v-26.663c0-16.693 14.868-30.275 33.143-30.275s33.14 13.581 33.14 30.275z" class="cls-1" data-name="패스 1024" transform="translate(-629.535 -591.306)"/>
        </clipPath>
    </defs>
    <g id="simbol" transform="translate(-629.089 -586.73)">
        <g id="그룹_368" data-name="그룹 368" transform="translate(630.135 586.73)">
            <circle id="타원_298" cx="6.776" cy="6.776" r="6.776" class="cls-1" data-name="타원 298"/>
        </g>
        <g id="그룹_421" data-name="그룹 421" transform="translate(630.146 597.576)">
            <g id="그룹_420" class="cls-2" data-name="그룹 420">
                <g id="그룹_369" data-name="그룹 369" transform="translate(-37.887 -37.245)">
                    <path id="패스_973" d="M613.972 651.265l-.421-.419 75.057-75.254.421.419z" class="cls-1" data-name="패스 973" transform="translate(-613.55 -575.592)"/>
                </g>
                <g id="그룹_370" data-name="그룹 370" transform="translate(-36.505 -35.862)">
                    <path id="패스_974" d="M614.555 651.849l-.421-.419 75.057-75.254.421.419z" class="cls-1" data-name="패스 974" transform="translate(-614.134 -576.176)"/>
                </g>
                <g id="그룹_371" data-name="그룹 371" transform="translate(-35.121 -34.479)">
                    <path id="패스_975" d="M615.139 652.433l-.421-.419 75.055-75.254.421.419z" class="cls-1" data-name="패스 975" transform="translate(-614.718 -576.759)"/>
                </g>
                <g id="그룹_372" data-name="그룹 372" transform="translate(-33.739 -33.097)">
                    <path id="패스_976" d="M615.722 653.015l-.421-.419 75.057-75.254.421.419z" class="cls-1" data-name="패스 976" transform="translate(-615.301 -577.342)"/>
                </g>
                <g id="그룹_373" data-name="그룹 373" transform="translate(-32.357 -31.714)">
                    <path id="패스_977" d="M616.3 653.6l-.421-.419 75.057-75.254.421.419z" class="cls-1" data-name="패스 977" transform="translate(-615.883 -577.926)"/>
                </g>
                <g id="그룹_374" data-name="그룹 374" transform="translate(-30.973 -30.331)">
                    <path id="패스_978" d="M616.889 654.182l-.421-.419 75.055-75.254.421.419z" class="cls-1" data-name="패스 978" transform="translate(-616.467 -578.509)"/>
                </g>
                <g id="그룹_375" data-name="그룹 375" transform="translate(-29.591 -28.949)">
                    <path id="패스_979" d="M617.472 654.766l-.421-.419 75.058-75.254.421.419z" class="cls-1" data-name="패스 979" transform="translate(-617.05 -579.092)"/>
                </g>
                <g id="그룹_376" data-name="그룹 376" transform="translate(-28.209 -27.566)">
                    <path id="패스_980" d="M618.055 655.349l-.421-.419 75.057-75.254.421.419z" class="cls-1" data-name="패스 980" transform="translate(-617.633 -579.676)"/>
                </g>
                <g id="그룹_377" data-name="그룹 377" transform="translate(-26.825 -26.183)">
                    <path id="패스_981" d="M618.639 655.932l-.421-.419 75.055-75.254.421.419z" class="cls-1" data-name="패스 981" transform="translate(-618.218 -580.259)"/>
                </g>
                <g id="그룹_378" data-name="그룹 378" transform="translate(-25.443 -24.802)">
                    <path id="패스_982" d="M619.222 656.516l-.421-.419 75.057-75.254.421.419z" class="cls-1" data-name="패스 982" transform="translate(-618.8 -580.842)"/>
                </g>
                <g id="그룹_379" data-name="그룹 379" transform="translate(-24.061 -23.419)">
                    <path id="패스_983" d="M619.8 657.1l-.421-.419 75.058-75.254.421.419z" class="cls-1" data-name="패스 983" transform="translate(-619.383 -581.426)"/>
                </g>
                <g id="그룹_380" data-name="그룹 380" transform="translate(-22.677 -22.036)">
                    <path id="패스_984" d="M620.389 657.682l-.421-.419 75.055-75.254.421.419z" class="cls-1" data-name="패스 984" transform="translate(-619.968 -582.009)"/>
                </g>
                <g id="그룹_381" data-name="그룹 381" transform="translate(-21.295 -20.654)">
                    <path id="패스_985" d="M620.972 658.265l-.421-.419 75.057-75.254.421.419z" class="cls-1" data-name="패스 985" transform="translate(-620.551 -582.592)"/>
                </g>
                <g id="그룹_382" data-name="그룹 382" transform="translate(-19.913 -19.271)">
                    <path id="패스_986" d="M621.555 658.849l-.421-.419 75.057-75.254.421.419z" class="cls-1" data-name="패스 986" transform="translate(-621.134 -583.176)"/>
                </g>
                <g id="그룹_383" data-name="그룹 383" transform="translate(-18.529 -17.888)">
                    <path id="패스_987" d="M622.139 659.432l-.421-.419 75.055-75.254.421.419z" class="cls-1" data-name="패스 987" transform="translate(-621.717 -583.759)"/>
                </g>
                <g id="그룹_384" data-name="그룹 384" transform="translate(-17.147 -16.506)">
                    <path id="패스_988" d="M622.722 660.016l-.421-.419 75.057-75.254.421.419z" class="cls-1" data-name="패스 988" transform="translate(-622.301 -584.342)"/>
                </g>
                <g id="그룹_385" data-name="그룹 385" transform="translate(-15.766 -15.123)">
                    <path id="패스_989" d="M623.3 660.6l-.421-.419 75.057-75.254.421.419z" class="cls-1" data-name="패스 989" transform="translate(-622.884 -584.926)"/>
                </g>
                <g id="그룹_386" data-name="그룹 386" transform="translate(-14.381 -13.74)">
                    <path id="패스_990" d="M623.889 661.182l-.421-.419 75.055-75.254.421.419z" class="cls-1" data-name="패스 990" transform="translate(-623.467 -585.509)"/>
                </g>
                <g id="그룹_387" data-name="그룹 387" transform="translate(-13 -12.358)">
                    <path id="패스_991" d="M624.472 661.766l-.421-.419 75.058-75.254.421.419z" class="cls-1" data-name="패스 991" transform="translate(-624.05 -586.092)"/>
                </g>
                <g id="그룹_388" data-name="그룹 388" transform="translate(-11.618 -10.975)">
                    <path id="패스_992" d="M625.055 662.349l-.421-.419 75.057-75.254.421.419z" class="cls-1" data-name="패스 992" transform="translate(-624.633 -586.676)"/>
                </g>
                <g id="그룹_389" data-name="그룹 389" transform="translate(-10.234 -9.592)">
                    <path id="패스_993" d="M625.639 662.932l-.421-.419 75.055-75.254.421.419z" class="cls-1" data-name="패스 993" transform="translate(-625.218 -587.259)"/>
                </g>
                <g id="그룹_390" data-name="그룹 390" transform="translate(-8.852 -8.21)">
                    <path id="패스_994" d="M626.222 663.515l-.421-.419 75.057-75.254.421.419z" class="cls-1" data-name="패스 994" transform="translate(-625.8 -587.842)"/>
                </g>
                <g id="그룹_391" data-name="그룹 391" transform="translate(-7.47 -6.827)">
                    <path id="패스_995" d="M626.8 664.1l-.421-.419 75.057-75.254.421.419z" class="cls-1" data-name="패스 995" transform="translate(-626.383 -588.426)"/>
                </g>
                <g id="그룹_392" data-name="그룹 392" transform="translate(-6.086 -5.444)">
                    <path id="패스_996" d="M627.389 664.682l-.421-.419 75.055-75.254.421.419z" class="cls-1" data-name="패스 996" transform="translate(-626.968 -589.009)"/>
                </g>
                <g id="그룹_393" data-name="그룹 393" transform="translate(-4.704 -4.062)">
                    <path id="패스_997" d="M627.972 665.265l-.421-.419 75.057-75.254.421.419z" class="cls-1" data-name="패스 997" transform="translate(-627.551 -589.592)"/>
                </g>
                <g id="그룹_394" data-name="그룹 394" transform="translate(-3.322 -2.679)">
                    <path id="패스_998" d="M628.555 665.849l-.421-.419 75.057-75.254.421.419z" class="cls-1" data-name="패스 998" transform="translate(-628.133 -590.176)"/>
                </g>
                <g id="그룹_395" data-name="그룹 395" transform="translate(-1.938 -1.296)">
                    <path id="패스_999" d="M629.139 666.432l-.421-.419 75.055-75.254.421.419z" class="cls-1" data-name="패스 999" transform="translate(-628.717 -590.759)"/>
                </g>
                <g id="그룹_396" data-name="그룹 396" transform="translate(-.556 .086)">
                    <path id="패스_1000" d="M629.722 667.016l-.421-.419 75.057-75.254.421.419z" class="cls-1" data-name="패스 1000" transform="translate(-629.301 -591.342)"/>
                </g>
                <g id="그룹_397" data-name="그룹 397" transform="translate(.826 1.469)">
                    <path id="패스_1001" d="M630.3 667.6l-.421-.419 75.057-75.254.421.419z" class="cls-1" data-name="패스 1001" transform="translate(-629.884 -591.925)"/>
                </g>
                <g id="그룹_398" data-name="그룹 398" transform="translate(2.21 2.852)">
                    <path id="패스_1002" d="M630.889 668.182l-.421-.419 75.055-75.254.421.419z" class="cls-1" data-name="패스 1002" transform="translate(-630.467 -592.509)"/>
                </g>
                <g id="그룹_399" data-name="그룹 399" transform="translate(3.592 4.234)">
                    <path id="패스_1003" d="M631.472 668.766l-.421-.419 75.058-75.254.421.419z" class="cls-1" data-name="패스 1003" transform="translate(-631.05 -593.092)"/>
                </g>
                <g id="그룹_400" data-name="그룹 400" transform="translate(4.974 5.617)">
                    <path id="패스_1004" d="M632.055 669.349l-.421-.419 75.058-75.254.421.419z" class="cls-1" data-name="패스 1004" transform="translate(-631.633 -593.676)"/>
                </g>
                <g id="그룹_401" data-name="그룹 401" transform="translate(6.358 7)">
                    <path id="패스_1005" d="M632.639 669.932l-.421-.419 75.055-75.254.421.419z" class="cls-1" data-name="패스 1005" transform="translate(-632.217 -594.259)"/>
                </g>
                <g id="그룹_402" data-name="그룹 402" transform="translate(7.74 8.381)">
                    <path id="패스_1006" d="M633.222 670.515l-.421-.419 75.057-75.254.421.419z" class="cls-1" data-name="패스 1006" transform="translate(-632.801 -594.842)"/>
                </g>
                <g id="그룹_403" data-name="그룹 403" transform="translate(9.122 9.764)">
                    <path id="패스_1007" d="M633.8 671.1l-.421-.419 75.057-75.254.421.419z" class="cls-1" data-name="패스 1007" transform="translate(-633.384 -595.426)"/>
                </g>
                <g id="그룹_404" data-name="그룹 404" transform="translate(10.506 11.147)">
                    <path id="패스_1008" d="M634.389 671.682l-.421-.419 75.055-75.254.421.419z" class="cls-1" data-name="패스 1008" transform="translate(-633.968 -596.009)"/>
                </g>
                <g id="그룹_405" data-name="그룹 405" transform="translate(11.888 12.529)">
                    <path id="패스_1009" d="M634.972 672.265l-.421-.419 75.057-75.254.421.419z" class="cls-1" data-name="패스 1009" transform="translate(-634.551 -596.592)"/>
                </g>
                <g id="그룹_406" data-name="그룹 406" transform="translate(13.27 13.912)">
                    <path id="패스_1010" d="M635.555 672.849l-.421-.419 75.057-75.254.421.419z" class="cls-1" data-name="패스 1010" transform="translate(-635.134 -597.176)"/>
                </g>
                <g id="그룹_407" data-name="그룹 407" transform="translate(14.654 15.295)">
                    <path id="패스_1011" d="M636.139 673.432l-.421-.419 75.055-75.254.421.419z" class="cls-1" data-name="패스 1011" transform="translate(-635.717 -597.759)"/>
                </g>
                <g id="그룹_408" data-name="그룹 408" transform="translate(16.036 16.677)">
                    <path id="패스_1012" d="M636.722 674.016l-.421-.419 75.058-75.254.421.419z" class="cls-1" data-name="패스 1012" transform="translate(-636.3 -598.342)"/>
                </g>
                <g id="그룹_409" data-name="그룹 409" transform="translate(17.417 18.06)">
                    <path id="패스_1013" d="M637.3 674.6l-.421-.419 75.057-75.254.421.419z" class="cls-1" data-name="패스 1013" transform="translate(-636.884 -598.926)"/>
                </g>
                <g id="그룹_410" data-name="그룹 410" transform="translate(18.802 19.443)">
                    <path id="패스_1014" d="M637.889 675.182l-.421-.419 75.055-75.254.421.419z" class="cls-1" data-name="패스 1014" transform="translate(-637.468 -599.509)"/>
                </g>
                <g id="그룹_411" data-name="그룹 411" transform="translate(20.183 20.825)">
                    <path id="패스_1015" d="M638.472 675.765l-.421-.419 75.057-75.254.421.419z" class="cls-1" data-name="패스 1015" transform="translate(-638.05 -600.092)"/>
                </g>
                <g id="그룹_412" data-name="그룹 412" transform="translate(21.565 22.208)">
                    <path id="패스_1016" d="M639.055 676.349l-.421-.419 75.058-75.254.421.419z" class="cls-1" data-name="패스 1016" transform="translate(-638.633 -600.676)"/>
                </g>
                <g id="그룹_413" data-name="그룹 413" transform="translate(22.949 23.591)">
                    <path id="패스_1017" d="M639.639 676.933l-.421-.419 75.055-75.254.421.419z" class="cls-1" data-name="패스 1017" transform="translate(-639.218 -601.259)"/>
                </g>
                <g id="그룹_414" data-name="그룹 414" transform="translate(24.331 24.973)">
                    <path id="패스_1018" d="M640.222 677.515l-.421-.419 75.057-75.254.421.419z" class="cls-1" data-name="패스 1018" transform="translate(-639.8 -601.842)"/>
                </g>
                <g id="그룹_415" data-name="그룹 415" transform="translate(25.713 26.356)">
                    <path id="패스_1019" d="M640.8 678.1l-.421-.419 75.057-75.254.421.419z" class="cls-1" data-name="패스 1019" transform="translate(-640.384 -602.426)"/>
                </g>
                <g id="그룹_416" data-name="그룹 416" transform="translate(27.097 27.739)">
                    <path id="패스_1020" d="M641.389 678.682l-.421-.419 75.055-75.254.421.419z" class="cls-1" data-name="패스 1020" transform="translate(-640.968 -603.009)"/>
                </g>
                <g id="그룹_417" data-name="그룹 417" transform="translate(28.479 29.121)">
                    <path id="패스_1021" d="M641.972 679.266l-.421-.419 75.057-75.254.421.419z" class="cls-1" data-name="패스 1021" transform="translate(-641.551 -603.592)"/>
                </g>
                <g id="그룹_418" data-name="그룹 418" transform="translate(29.861 30.504)">
                    <path id="패스_1022" d="M642.555 679.849l-.421-.419 75.057-75.254.421.419z" class="cls-1" data-name="패스 1022" transform="translate(-642.133 -604.176)"/>
                </g>
                <g id="그룹_419" data-name="그룹 419" transform="translate(31.245 31.887)">
                    <path id="패스_1023" d="M643.139 680.432l-.421-.419 75.055-75.254.421.419z" class="cls-1" data-name="패스 1023" transform="translate(-642.717 -604.759)"/>
                </g>
            </g>
        </g>
        <g id="그룹_422" data-name="그룹 422" transform="translate(629.089 659.621)">
            <path id="패스_1025" d="M638.489 620.163a6.588 6.588 0 0 0-2.439-.811 5.689 5.689 0 0 0-3.622.728 6.718 6.718 0 0 0-1.747 1.465v-1.856h-1.593v13.465h1.593v-7.34a4.769 4.769 0 0 1 1.695-3.69 4.435 4.435 0 0 1 2.948-1.225 2.613 2.613 0 0 1 .458.042 4.792 4.792 0 0 1 1.756.574 3.462 3.462 0 0 1 1.071 1.249 6.227 6.227 0 0 1 .642 3.141v7.25h1.638V625.9a8.093 8.093 0 0 0-.844-4.032 4.975 4.975 0 0 0-1.556-1.705z" class="cls-1" data-name="패스 1025" transform="translate(-629.089 -616.36)"/>
            <path id="사각형_1706" d="M0 0h1.592v1.594H0z" class="cls-1" data-name="사각형 1706" transform="translate(15.2)"/>
            <path id="사각형_1707" d="M0 0h1.592v13.511H0z" class="cls-1" data-name="사각형 1707" transform="translate(15.2 3.305)"/>
            <path id="패스_1026" d="M653.292 619.338a4.594 4.594 0 0 0-.8-.069 5.365 5.365 0 0 0-3.617 1.427 5.819 5.819 0 0 0-1.071 1.211 4.691 4.691 0 0 0-3.84-2.57 4.6 4.6 0 0 0-.8-.069 5.291 5.291 0 0 0-3.769 1.562v-1.114H637.8v13.51h1.593v-9.611a3.627 3.627 0 0 1 1.024-1.508 4.3 4.3 0 0 1 2.832-1.225 2.924 2.924 0 0 1 2.96 1.661 8.484 8.484 0 0 1 .63 3.344v7.338h1.638v-7.293c0-.545-.009-.976-.026-1.244a4.211 4.211 0 0 1 1.294-2.584 4.324 4.324 0 0 1 2.837-1.223 2.919 2.919 0 0 1 2.958 1.661 8.54 8.54 0 0 1 .63 3.344v7.338h1.638v-7.293a9.682 9.682 0 0 0-.813-4.359 4.567 4.567 0 0 0-3.703-2.234z" class="cls-1" data-name="패스 1026" transform="translate(-617.156 -616.412)"/>
            <path id="패스_1027" d="M653.443 619.354a5.729 5.729 0 0 0-4.344 2.079 7.158 7.158 0 0 0-1.87 4.947 7.4 7.4 0 0 0 1.7 5.124 6.4 6.4 0 0 0 9.085.021 7.537 7.537 0 0 0 1.645-5.146 7.177 7.177 0 0 0-1.858-4.947 5.725 5.725 0 0 0-4.358-2.078zm4.624 7.025a5.839 5.839 0 0 1-1.289 3.97 4.166 4.166 0 0 1-3.311 1.462 4.227 4.227 0 0 1-3.333-1.439 5.888 5.888 0 0 1-1.268-3.994 5.662 5.662 0 0 1 1.406-3.837 4 4 0 0 1 6.392 0 5.676 5.676 0 0 1 1.403 3.838z" class="cls-1" data-name="패스 1027" transform="translate(-604.235 -616.295)"/>
            <path id="패스_1028" d="M664.6 621.871a4.978 4.978 0 0 0-1.56-1.709 6.577 6.577 0 0 0-2.437-.811 5.7 5.7 0 0 0-3.617.728 6.646 6.646 0 0 0-1.751 1.465v-1.856h-1.6v13.465h1.6v-7.341a4.757 4.757 0 0 1 1.7-3.69 4.422 4.422 0 0 1 2.948-1.225 2.609 2.609 0 0 1 .455.042 4.791 4.791 0 0 1 1.756.574 3.434 3.434 0 0 1 1.071 1.249 6.223 6.223 0 0 1 .64 3.141v7.25h1.64V625.9a8.129 8.129 0 0 0-.845-4.029z" class="cls-1" data-name="패스 1028" transform="translate(-595.448 -616.359)"/>
        </g>
    </g>
</svg>
